<svg width="50" height="50" viewBox="0 0 50 50" fill="none" xmlns="http://www.w3.org/2000/svg">
<g clip-path="url(#clip0_1_4)">
<path fill-rule="evenodd" clip-rule="evenodd" d="M25 0C18.3696 0 12.0107 2.63392 7.32233 7.32233C2.63392 12.0107 0 18.3696 0 25C0 31.6304 2.63392 37.9893 7.32233 42.6777C12.0107 47.3661 18.3696 50 25 50C31.6304 50 37.9893 47.3661 42.6777 42.6777C47.3661 37.9893 50 31.6304 50 25C50 18.3696 47.3661 12.0107 42.6777 7.32233C37.9893 2.63392 31.6304 0 25 0ZM22.028 13.984H28.004C29.1 13.984 30.016 14.9 30.016 15.996V18.012H36V20.012H34V34.012C34 35.102 33.09 36.012 32 36.012H18C16.91 36.012 16 35.102 16 34.012V20.012H14V18.012H20.016V15.996C20.016 14.9 20.93 13.984 22.028 13.984ZM22.028 15.976C22.004 15.976 22.016 15.976 22.016 16V18.016H28.016V16C28.016 15.96 28.028 15.976 28.004 15.976H22.028ZM18 20.012V34.012H20V22.012H22V34.012H24V22.012H26V34.012H28V22.012H30V34.012H32V20.012H18Z" fill="#EA4F20"/>
</g>
<defs>
<clipPath id="clip0_1_4">
<rect width="50" height="50" fill="white"/>
</clipPath>
</defs>
</svg>
