<svg width="50" height="50" viewBox="0 0 50 50" fill="none" xmlns="http://www.w3.org/2000/svg">
<g clip-path="url(#clip0_1_6)">
<path fill-rule="evenodd" clip-rule="evenodd" d="M25 0C18.3696 0 12.0107 2.63392 7.32233 7.32233C2.63392 12.0107 0 18.3696 0 25C0 31.6304 2.63392 37.9893 7.32233 42.6777C12.0107 47.3661 18.3696 50 25 50C31.6304 50 37.9893 47.3661 42.6777 42.6777C47.3661 37.9893 50 31.6304 50 25C50 18.3696 47.3661 12.0107 42.6777 7.32233C37.9893 2.63392 31.6304 0 25 0ZM38.726 11.312L35.894 19.812L22.976 32.664L22.96 32.684H22.968L20.296 35.36C20.0909 35.5632 19.8477 35.724 19.5803 35.8332C19.313 35.9423 19.0268 35.9976 18.738 35.996C18.172 35.996 17.606 35.784 17.178 35.36L14.638 32.816C14.2293 32.4004 14.0003 31.8409 14.0003 31.258C14.0003 30.6751 14.2293 30.1156 14.638 29.7L17.312 27.028L17.328 27.048L30.23 14.144L38.726 11.312ZM35.562 14.476L31.996 15.664L34.376 18.044L35.562 14.476ZM30.356 16.852L19.436 27.766L22.266 30.55L33.184 19.68L30.356 16.852ZM18.012 29.16L16.054 31.118C15.962 31.208 15.962 31.314 16.054 31.406L18.594 33.95C18.686 34.042 18.79 34.042 18.882 33.95L20.86 31.97L18.012 29.16Z" fill="#32BF50"/>
</g>
<defs>
<clipPath id="clip0_1_6">
<rect width="50" height="50" fill="white"/>
</clipPath>
</defs>
</svg>
