<svg width="50" height="50" viewBox="0 0 50 50" fill="none" xmlns="http://www.w3.org/2000/svg">
<path d="M12.1973 33.3298C12.6332 33.2047 13.0749 33.1008 13.5208 33.0185C12.1201 31.4406 11.0299 29.6125 10.3077 27.6301C11.7173 27.4143 15.1857 27.1104 18.2446 28.6065C18.197 28.1641 18.1689 27.7146 18.1604 27.258C14.0146 25.5214 9.59315 26.5396 9.38571 26.5893C9.30759 26.6079 9.23405 26.6422 9.16951 26.6899C9.10498 26.7377 9.05078 26.7981 9.01018 26.8674C8.96958 26.9367 8.94343 27.0135 8.93329 27.0931C8.92315 27.1728 8.92924 27.2537 8.95118 27.331C9.63805 29.5204 10.7402 31.5571 12.1973 33.3298ZM39.6923 27.6304C38.9672 29.6221 37.8704 31.4579 36.4601 33.0402C36.9137 33.1256 37.3548 33.2318 37.783 33.3533C39.25 31.5754 40.359 29.5303 41.0488 27.331C41.0707 27.2537 41.0768 27.1728 41.0667 27.0931C41.0566 27.0135 41.0304 26.9367 40.9898 26.8674C40.9492 26.7981 40.895 26.7377 40.8305 26.6899C40.7659 26.6422 40.6924 26.6079 40.6143 26.5893C40.4068 26.5396 35.9851 25.5214 31.8396 27.258C31.832 27.7144 31.804 28.1639 31.7553 28.6065C34.8146 27.1104 38.283 27.4143 39.6923 27.6304ZM25 25.0667C24.5291 25.0667 24.0688 25.2063 23.6772 25.4679C23.2857 25.7296 22.9805 26.1014 22.8003 26.5365C22.6201 26.9715 22.5729 27.4503 22.6648 27.9121C22.7567 28.374 22.9834 28.7982 23.3164 29.1312C23.6494 29.4642 24.0736 29.691 24.5355 29.7828C24.9974 29.8747 25.4761 29.8275 25.9111 29.6473C26.3462 29.4671 26.7181 29.162 26.9797 28.7704C27.2413 28.3789 27.3809 27.9185 27.3809 27.4476C27.3802 26.8164 27.1291 26.2112 26.6827 25.7649C26.2364 25.3186 25.6312 25.0675 25 25.0667ZM25 28.6381C24.7645 28.6381 24.5344 28.5683 24.3386 28.4375C24.1428 28.3067 23.9902 28.1207 23.9001 27.9032C23.81 27.6857 23.7865 27.4463 23.8324 27.2154C23.8783 26.9844 23.9917 26.7723 24.1582 26.6058C24.3247 26.4393 24.5368 26.326 24.7677 26.28C24.9987 26.2341 25.238 26.2577 25.4556 26.3478C25.6731 26.4379 25.859 26.5905 25.9898 26.7862C26.1207 26.982 26.1905 27.2122 26.1905 27.4476C26.1902 27.7633 26.0646 28.0659 25.8414 28.2891C25.6182 28.5123 25.3156 28.6378 25 28.6381Z" fill="#E94B8A"/>
<path d="M25.8928 10.4342C26.0694 10.4342 26.2421 10.3819 26.3889 10.2838C26.5357 10.1856 26.6502 10.0462 26.7177 9.88305C26.7853 9.7199 26.803 9.54038 26.7685 9.36718C26.7341 9.19398 26.6491 9.03489 26.5242 8.91002C26.3993 8.78515 26.2402 8.70012 26.067 8.66567C25.8938 8.63122 25.7143 8.6489 25.5512 8.71647C25.388 8.78405 25.2486 8.89849 25.1505 9.04532C25.0524 9.19215 25 9.36478 25 9.54137C25.0002 9.77809 25.0944 10.0051 25.2618 10.1725C25.4292 10.3398 25.6561 10.434 25.8928 10.4342ZM25.8928 9.09494C25.9811 9.09494 26.0675 9.12112 26.1409 9.17018C26.2143 9.21923 26.2715 9.28895 26.3053 9.37053C26.3391 9.4521 26.3479 9.54186 26.3307 9.62846C26.3135 9.71506 26.271 9.79461 26.2085 9.85704C26.1461 9.91947 26.0665 9.96199 25.9799 9.97922C25.8933 9.99644 25.8036 9.9876 25.722 9.95381C25.6404 9.92003 25.5707 9.86281 25.5217 9.78939C25.4726 9.71598 25.4464 9.62966 25.4464 9.54137C25.4465 9.42299 25.4936 9.30949 25.5773 9.22578C25.661 9.14208 25.7745 9.09502 25.8928 9.09494ZM45.7342 16.2378C45.6165 16.2378 45.5014 16.2727 45.4035 16.3381C45.3056 16.4035 45.2293 16.4965 45.1843 16.6052C45.1392 16.714 45.1274 16.8337 45.1504 16.9492C45.1734 17.0646 45.2301 17.1707 45.3133 17.2539C45.3966 17.3372 45.5026 17.3939 45.6181 17.4168C45.7336 17.4398 45.8532 17.428 45.962 17.383C46.0708 17.3379 46.1637 17.2616 46.2291 17.1637C46.2945 17.0658 46.3295 16.9508 46.3295 16.833C46.3293 16.6752 46.2665 16.5239 46.1549 16.4123C46.0433 16.3007 45.892 16.238 45.7342 16.2378ZM45.7342 17.1307C45.6754 17.1307 45.6178 17.1132 45.5689 17.0805C45.5199 17.0478 45.4818 17.0013 45.4593 16.9469C45.4367 16.8925 45.4308 16.8327 45.4423 16.775C45.4538 16.7172 45.4821 16.6642 45.5238 16.6226C45.5654 16.581 45.6184 16.5526 45.6762 16.5411C45.7339 16.5297 45.7937 16.5355 45.8481 16.5581C45.9025 16.5806 45.949 16.6187 45.9817 16.6677C46.0144 16.7166 46.0318 16.7742 46.0318 16.833C46.0318 16.9119 46.0004 16.9876 45.9446 17.0434C45.8888 17.0992 45.8131 17.1306 45.7342 17.1307ZM33.73 18.9164C33.6123 18.9164 33.4972 18.9513 33.3994 19.0167C33.3015 19.0821 33.2252 19.1751 33.1801 19.2838C33.1351 19.3926 33.1233 19.5123 33.1462 19.6277C33.1692 19.7432 33.2259 19.8493 33.3091 19.9325C33.3924 20.0157 33.4985 20.0724 33.6139 20.0954C33.7294 20.1184 33.8491 20.1066 33.9578 20.0615C34.0666 20.0165 34.1596 19.9402 34.225 19.8423C34.2904 19.7444 34.3253 19.6293 34.3253 19.5116C34.3251 19.3538 34.2624 19.2025 34.1508 19.0909C34.0392 18.9793 33.8879 18.9165 33.73 18.9164ZM33.73 19.8092C33.6712 19.8092 33.6136 19.7918 33.5647 19.7591C33.5158 19.7264 33.4776 19.6799 33.4551 19.6255C33.4326 19.5711 33.4267 19.5113 33.4381 19.4535C33.4496 19.3958 33.478 19.3428 33.5196 19.3012C33.5612 19.2595 33.6143 19.2312 33.672 19.2197C33.7297 19.2082 33.7896 19.2141 33.8439 19.2366C33.8983 19.2592 33.9448 19.2973 33.9775 19.3463C34.0102 19.3952 34.0277 19.4527 34.0277 19.5116C34.0276 19.5905 33.9962 19.6662 33.9404 19.722C33.8846 19.7778 33.809 19.8091 33.73 19.8092ZM47.4205 3.53928C47.3028 3.53928 47.1877 3.57419 47.0898 3.6396C46.9919 3.70501 46.9156 3.79797 46.8706 3.90673C46.8255 4.0155 46.8138 4.13518 46.8367 4.25065C46.8597 4.36611 46.9164 4.47217 46.9996 4.55542C47.0829 4.63866 47.1889 4.69536 47.3044 4.71832C47.4199 4.74129 47.5395 4.7295 47.6483 4.68445C47.7571 4.6394 47.85 4.5631 47.9154 4.46522C47.9809 4.36733 48.0158 4.25225 48.0158 4.13452C48.0156 3.9767 47.9528 3.82539 47.8412 3.7138C47.7297 3.6022 47.5783 3.53944 47.4205 3.53928ZM47.4205 4.43214C47.3617 4.43214 47.3041 4.41469 47.2552 4.38198C47.2062 4.34928 47.1681 4.3028 47.1456 4.24842C47.123 4.19403 47.1171 4.13419 47.1286 4.07646C47.1401 4.01873 47.1685 3.9657 47.2101 3.92407C47.2517 3.88245 47.3047 3.85411 47.3625 3.84262C47.4202 3.83114 47.48 3.83703 47.5344 3.85956C47.5888 3.88208 47.6353 3.92023 47.668 3.96917C47.7007 4.01812 47.7181 4.07566 47.7181 4.13452C47.7181 4.21343 47.6867 4.28909 47.6309 4.34488C47.5751 4.40068 47.4994 4.43206 47.4205 4.43214ZM5.15028 8.4003C5.15028 8.28257 5.11537 8.16749 5.04997 8.0696C4.98456 7.97171 4.8916 7.89542 4.78283 7.85037C4.67407 7.80532 4.55439 7.79353 4.43892 7.8165C4.32346 7.83946 4.2174 7.89615 4.13415 7.9794C4.0509 8.06264 3.99421 8.16871 3.97125 8.28417C3.94828 8.39964 3.96007 8.51932 4.00512 8.62808C4.05017 8.73685 4.12646 8.82981 4.22435 8.89522C4.32224 8.96062 4.43732 8.99553 4.55505 8.99553C4.71287 8.99538 4.86417 8.93261 4.97577 8.82102C5.08736 8.70942 5.15013 8.55811 5.15028 8.4003ZM4.25743 8.4003C4.25743 8.34143 4.27488 8.28389 4.30759 8.23495C4.34029 8.186 4.38677 8.14786 4.44115 8.12533C4.49554 8.10281 4.55538 8.09691 4.61311 8.1084C4.67084 8.11988 4.72387 8.14822 4.76549 8.18985C4.80712 8.23147 4.83546 8.2845 4.84695 8.34223C4.85843 8.39997 4.85254 8.45981 4.83001 8.51419C4.80748 8.56857 4.76934 8.61505 4.72039 8.64776C4.67145 8.68046 4.61391 8.69792 4.55505 8.69792C4.47614 8.69784 4.40048 8.66645 4.34469 8.61066C4.28889 8.55486 4.25751 8.47921 4.25743 8.4003Z" fill="white"/>
<path d="M3.24049 20.606L3.68305 20.0241L3.40358 19.8658L3.11936 20.5176H3.11013L2.82144 19.8702L2.53722 20.0333L2.97501 20.6015V20.6107L2.29019 20.5223V20.839L2.97948 20.7506V20.7598L2.53722 21.3277L2.80239 21.4955L3.10537 20.839H3.1146L3.39406 21.4908L3.68751 21.3232L3.24049 20.7643V20.7551L3.94347 20.839V20.5223L3.24049 20.6155V20.606ZM18.7982 3.42411L18.5435 3.75119L18.6961 3.84762L18.8706 3.46964H18.8759L19.0369 3.84494L19.206 3.74851L18.9485 3.42679V3.42143L19.3533 3.46964V3.2872L18.9485 3.34077V3.33542L19.2033 3.0003L19.0423 2.90923L18.8789 3.28452H18.8732L18.7072 2.9119L18.5435 3.00565L18.7956 3.33274V3.33809L18.4012 3.2872V3.46964L18.7982 3.41875V3.42411ZM36.9991 4.75952V4.44911L36.3095 4.54048V4.53125L36.7435 3.96042L36.4694 3.80506L36.1908 4.44434H36.1816L35.8985 3.80952L35.6197 3.96964L36.0491 4.52679V4.53601L35.3774 4.44911V4.75952L36.0536 4.67292V4.68214L35.6197 5.23929L35.8801 5.40387L36.1771 4.75952H36.186L36.4601 5.39911L36.7479 5.23482L36.3095 4.68661V4.67738L36.9991 4.75952ZM16.4682 18.2863L16.8426 17.7938L16.6063 17.6598L16.3658 18.2113H16.3581L16.1137 17.6637L15.8732 17.8018L16.2438 18.2824V18.2902L15.6643 18.2155V18.4833L16.2476 18.4086V18.4164L15.8732 18.897L16.0976 19.039L16.3542 18.4833H16.3616L16.5982 19.0348L16.8464 18.8932L16.4682 18.4202V18.4125L17.0631 18.4833V18.2155L16.4682 18.294V18.2863Z" fill="#E94B8A"/>
<path d="M0.595238 42.9241C0.923979 42.9241 1.19048 42.6576 1.19048 42.3289C1.19048 42.0001 0.923979 41.7336 0.595238 41.7336C0.266497 41.7336 0 42.0001 0 42.3289C0 42.6576 0.266497 42.9241 0.595238 42.9241Z" fill="white"/>
<path d="M3.2738 41.7336H2.38094C2.22308 41.7336 2.07168 41.7963 1.96005 41.908C1.84842 42.0196 1.78571 42.171 1.78571 42.3289C1.78571 42.4867 1.84842 42.6381 1.96005 42.7498C2.07168 42.8614 2.22308 42.9241 2.38094 42.9241H3.2738C3.43167 42.9241 3.58307 42.8614 3.6947 42.7498C3.80633 42.6381 3.86904 42.4867 3.86904 42.3289C3.86904 42.171 3.80633 42.0196 3.6947 41.908C3.58307 41.7963 3.43167 41.7336 3.2738 41.7336ZM47.619 41.7336H46.7262C46.5683 41.7336 46.4169 41.7963 46.3053 41.908C46.1937 42.0196 46.1309 42.171 46.1309 42.3289C46.1309 42.4867 46.1937 42.6381 46.3053 42.7498C46.4169 42.8614 46.5683 42.9241 46.7262 42.9241H47.619C47.7769 42.9241 47.9283 42.8614 48.0399 42.7498C48.1516 42.6381 48.2143 42.4867 48.2143 42.3289C48.2143 42.171 48.1516 42.0196 48.0399 41.908C47.9283 41.7963 47.7769 41.7336 47.619 41.7336Z" fill="#D3D3D3"/>
<path d="M49.4047 42.9241C49.7335 42.9241 50 42.6576 50 42.3289C50 42.0001 49.7335 41.7336 49.4047 41.7336C49.076 41.7336 48.8095 42.0001 48.8095 42.3289C48.8095 42.6576 49.076 42.9241 49.4047 42.9241Z" fill="white"/>
<path d="M35.1649 44.1146H32.6923C32.5424 44.1262 32.4024 44.194 32.3002 44.3043C32.1981 44.4147 32.1414 44.5595 32.1414 44.7098C32.1414 44.8602 32.1981 45.005 32.3002 45.1153C32.4024 45.2257 32.5424 45.2934 32.6923 45.3051H35.1649C35.3148 45.2934 35.4548 45.2257 35.5569 45.1153C35.659 45.005 35.7158 44.8602 35.7158 44.7098C35.7158 44.5595 35.659 44.4147 35.5569 44.3043C35.4548 44.194 35.3148 44.1262 35.1649 44.1146ZM17.3077 44.1146H14.8351C14.6852 44.1262 14.5452 44.194 14.4431 44.3043C14.341 44.4147 14.2842 44.5595 14.2842 44.7098C14.2842 44.8602 14.341 45.005 14.4431 45.1153C14.5452 45.2257 14.6852 45.2934 14.8351 45.3051H17.3077C17.4576 45.2934 17.5976 45.2257 17.6998 45.1153C17.8019 45.005 17.8586 44.8602 17.8586 44.7098C17.8586 44.5595 17.8019 44.4147 17.6998 44.3043C17.5976 44.194 17.4576 44.1262 17.3077 44.1146ZM30.9524 44.1146H19.0476C18.8898 44.1146 18.7384 44.1773 18.6267 44.2889C18.5151 44.4006 18.4524 44.552 18.4524 44.7098C18.4524 44.8677 18.5151 45.0191 18.6267 45.1307C18.7384 45.2424 18.8898 45.3051 19.0476 45.3051H23.7917V45.9003H21.4286C21.2707 45.9003 21.1193 45.963 21.0077 46.0746C20.896 46.1863 20.8333 46.3377 20.8333 46.4955C20.8333 46.6534 20.896 46.8048 21.0077 46.9164C21.1193 47.0281 21.2707 47.0908 21.4286 47.0908H28.8691C29.0269 47.0908 29.1783 47.0281 29.2899 46.9164C29.4016 46.8048 29.4643 46.6534 29.4643 46.4955C29.4643 46.3377 29.4016 46.1863 29.2899 46.0746C29.1783 45.963 29.0269 45.9003 28.8691 45.9003H26.2083V45.3051H30.9524C31.1103 45.3051 31.2617 45.2424 31.3733 45.1307C31.4849 45.0191 31.5476 44.8677 31.5476 44.7098C31.5476 44.552 31.4849 44.4006 31.3733 44.2889C31.2617 44.1773 31.1103 44.1146 30.9524 44.1146Z" fill="#E94B8A"/>
<path d="M44.8574 41.7336H39.2253C40.9115 40.9981 42.4739 40.0066 43.8574 38.794C43.9182 38.7376 43.9666 38.669 43.9993 38.5927C44.0321 38.5165 44.0485 38.4342 44.0476 38.3512C44.0467 38.2683 44.0284 38.1864 43.994 38.1109C43.9595 38.0354 43.9097 37.9679 43.8476 37.9128C43.6661 37.7515 39.3744 33.9929 34.0107 33.9929C33.9705 33.9929 33.9298 33.9929 33.8896 33.9934C31.8895 34.0417 29.9265 34.5434 28.1485 35.4607C29.419 33.2881 30.6548 30.3274 30.6548 27.0161C30.6548 20.3571 25.6536 14.7732 25.4405 14.539C25.3832 14.4801 25.3147 14.4333 25.2391 14.4013C25.1634 14.3693 25.0821 14.3529 25 14.3529C24.9179 14.3529 24.8366 14.3693 24.7609 14.4013C24.6852 14.4333 24.6168 14.4801 24.5595 14.539C24.3464 14.7732 19.3452 20.3571 19.3452 27.0161C19.3452 30.3274 20.5809 33.2875 21.8512 35.4604C20.0732 34.5431 18.1102 34.0414 16.1101 33.9932L15.9893 33.9929C10.6262 33.9929 6.33362 37.7518 6.15237 37.9125C6.09027 37.9676 6.04038 38.0351 6.00591 38.1106C5.97145 38.1862 5.95316 38.2681 5.95224 38.3511C5.95131 38.4341 5.96777 38.5164 6.00054 38.5927C6.03332 38.669 6.08169 38.7376 6.14255 38.794C7.52604 40.0066 9.08851 40.9981 10.7747 41.7336H5.14255C5.05787 41.7226 4.9718 41.7297 4.8901 41.7545C4.80839 41.7794 4.73293 41.8214 4.66875 41.8777C4.60457 41.9341 4.55315 42.0035 4.51793 42.0813C4.4827 42.159 4.46448 42.2435 4.46448 42.3289C4.46448 42.4143 4.4827 42.4987 4.51793 42.5765C4.55315 42.6543 4.60457 42.7237 4.66875 42.78C4.73293 42.8363 4.80839 42.8783 4.8901 42.9032C4.9718 42.928 5.05787 42.9352 5.14255 42.9241H44.8571C44.9418 42.9352 45.0279 42.928 45.1096 42.9032C45.1913 42.8783 45.2668 42.8363 45.3309 42.78C45.3951 42.7237 45.4465 42.6543 45.4818 42.5765C45.517 42.4987 45.5352 42.4143 45.5352 42.3289C45.5352 42.2435 45.517 42.159 45.4818 42.0813C45.4465 42.0035 45.3951 41.9341 45.3309 41.8777C45.2668 41.8214 45.1913 41.7794 45.1096 41.7545C45.0279 41.7297 44.9421 41.7226 44.8574 41.7336ZM33.9021 35.1842L34.0083 35.1836C37.872 35.1836 41.2384 37.4071 42.5134 38.369C41.2518 39.367 37.8976 41.6914 33.9806 41.7327C30.0693 41.7661 26.8125 39.5077 25.6095 38.5461C26.7899 37.5589 29.9899 35.2256 33.9021 35.1842ZM20.5357 27.0161C20.5357 21.9432 23.7955 17.3809 25.0003 15.8682C26.2056 17.3792 29.4643 21.9345 29.4643 27.0161C29.4643 32.0946 26.1928 36.4417 25 37.8574C23.8071 36.4417 20.5357 32.0946 20.5357 27.0161ZM15.9917 35.1836L16.0979 35.1842C20.0101 35.2256 23.2101 37.5592 24.3905 38.5461C23.1875 39.5077 19.9384 41.7631 16.019 41.7327C12.1125 41.6914 8.75178 39.3667 7.48749 38.3684C8.76309 37.4059 12.1286 35.1836 15.9917 35.1836ZM21.4408 41.7336C22.7103 41.1666 23.9057 40.4462 25 39.5884C26.0938 40.4463 27.2888 41.1667 28.558 41.7336H21.4408Z" fill="white"/>
</svg>
